name C:\Users\u0101727\Documents\MyRepositories\upper-imu-dc\Results\main_tracking\Case_56\kinematics.mot
datacolumns 43
datarows 9
range 0.95000000 1.03000000
endheader 
time	clav_prot	clav_elev	scapula_abduction	scapula_elevation	scapula_upward_rot	scapula_winging	plane_elv	shoulder_elv	axial_rot	TrapeziusScapula_M/activation	TrapeziusScapula_S/activation	TrapeziusScapula_I/activation	TrapeziusClavicle_S/activation	SerratusAnterior_I/activation	SerratusAnterior_M/activation	SerratusAnterior_S/activation	Rhomboideus_S/activation	Rhomboideus_I/activation	LevatorScapulae/activation	Coracobrachialis/activation	DeltoideusClavicle_A/activation	DeltoideusScapula_P/activation	DeltoideusScapula_M/activation	LatissimusDorsi_S/activation	LatissimusDorsi_M/activation	LatissimusDorsi_I/activation	PectoralisMajorClavicle_S/activation	PectoralisMajorThorax_I/activation	PectoralisMajorThorax_M/activation	TeresMajor/activation	Infraspinatus_I/activation	Infraspinatus_S/activation	PectoralisMinor/activation	TeresMinor/activation	Subscapularis_S/activation	Subscapularis_M/activation	Subscapularis_I/activation	Supraspinatus_P/activation	Supraspinatus_A/activation	TRIlong/activation	BIC_long/activation	BIC_brevis/activation	
          0.95000000	        -27.01488143	         -4.06997440	        -19.63036063	         -4.37529133	         13.90844516	          4.96297860	        -35.01730250	         17.61056468	         26.51965508	          0.06112799	          0.07439333	          0.04604247	          0.07136081	          0.07774534	          0.13084815	          0.06988520	          0.07159304	          0.06503806	          0.06471843	          0.07200415	          0.06171499	          0.03023819	          0.13051820	          0.06125896	          0.05742463	          0.06255946	          0.07222555	          0.06912392	          0.07519841	          0.04417750	          0.13579550	          0.18524127	          0.04830908	          0.04014856	          0.30765775	          0.10457056	          0.10890264	          0.07005542	          0.08106770	          0.04609319	          0.08795140	          0.08041020	
          0.96000000	        -27.01648252	         -4.06896635	        -19.63349974	         -4.37455800	         13.90817084	          4.96254722	        -35.06834641	         17.59165551	         26.72985073	          0.06078860	          0.07497999	          0.04619354	          0.07203849	          0.07686007	          0.13150858	          0.07000780	          0.07149107	          0.06379439	          0.06526053	          0.07202648	          0.06137731	          0.03052055	          0.13120865	          0.06138769	          0.05786674	          0.06264257	          0.07188553	          0.06928500	          0.07542192	          0.04391644	          0.13719969	          0.18540161	          0.04903751	          0.03940176	          0.31090644	          0.10566313	          0.10886553	          0.06995749	          0.08005587	          0.04666335	          0.08744442	          0.07970207	
          0.97000000	        -27.01816850	         -4.06832221	        -19.63677653	         -4.37406807	         13.90774039	          4.96227064	        -35.12251315	         17.57308554	         26.95092570	          0.06039885	          0.07579626	          0.04640926	          0.07274379	          0.07607164	          0.13227741	          0.07011490	          0.07140144	          0.06244274	          0.06595705	          0.07194396	          0.06093800	          0.03097692	          0.13170219	          0.06145439	          0.05836459	          0.06273280	          0.07161489	          0.06962778	          0.07572986	          0.04325823	          0.13691997	          0.18651837	          0.04982422	          0.03899618	          0.31326240	          0.10652509	          0.10861371	          0.06976873	          0.07902254	          0.04736328	          0.08655432	          0.07891640	
          0.98000000	        -27.01995936	         -4.06790983	        -19.64018333	         -4.37375580	         13.90728464	          4.96206910	        -35.17962650	         17.55521555	         27.18238542	          0.06002342	          0.07669246	          0.04667895	          0.07340502	          0.07541031	          0.13308493	          0.07017551	          0.07129872	          0.06106039	          0.06680648	          0.07185979	          0.06043776	          0.03153583	          0.13214832	          0.06146169	          0.05888684	          0.06282846	          0.07140002	          0.06997612	          0.07607906	          0.04231928	          0.13541653	          0.18826801	          0.05065168	          0.03913106	          0.31494430	          0.10706200	          0.10819725	          0.06951614	          0.07797237	          0.04809823	          0.08523783	          0.07821418	
          0.99000000	        -27.02185662	         -4.06760579	        -19.64366402	         -4.37356743	         13.90695976	          4.96186128	        -35.23933467	         17.53852891	         27.42292809	          0.05967868	          0.07762365	          0.04694987	          0.07399310	          0.07494882	          0.13381914	          0.07013946	          0.07119282	          0.05969515	          0.06776138	          0.07184136	          0.05996863	          0.03215701	          0.13268686	          0.06138106	          0.05937591	          0.06292969	          0.07121753	          0.07035111	          0.07641103	          0.04115855	          0.13315895	          0.19028776	          0.05146153	          0.03993756	          0.31604667	          0.10728028	          0.10758189	          0.06924479	          0.07687414	          0.04887608	          0.08356635	          0.07768351	
          1.00000000	        -27.02384379	         -4.06731156	        -19.64711382	         -4.37347212	         13.90694154	          4.96157120	        -35.30108051	         17.52363014	         27.67034262	          0.05935104	          0.07855311	          0.04717921	          0.07448193	          0.07477062	          0.13436878	          0.06996655	          0.07108870	          0.05841205	          0.06876270	          0.07192822	          0.05963076	          0.03280139	          0.13342949	          0.06122795	          0.05984031	          0.06304299	          0.07106696	          0.07069243	          0.07672458	          0.03980717	          0.13064594	          0.19229219	          0.05222614	          0.04134199	          0.31663380	          0.10725614	          0.10682141	          0.06898923	          0.07572093	          0.04972605	          0.08169457	          0.07737143	
          1.01000000	        -27.02588427	         -4.06695799	        -19.65037392	         -4.37346546	         13.90742644	          4.96112970	        -35.36407822	         17.51124167	         27.92147594	          0.05904197	          0.07945417	          0.04735222	          0.07485225	          0.07493324	          0.13467974	          0.06961903	          0.07099068	          0.05728115	          0.06976139	          0.07215252	          0.05947616	          0.03343255	          0.13446987	          0.06103916	          0.06031914	          0.06317823	          0.07097157	          0.07098522	          0.07702427	          0.03829899	          0.12834053	          0.19409042	          0.05288555	          0.04310362	          0.31668703	          0.10709876	          0.10603613	          0.06876456	          0.07454418	          0.05067628	          0.07977933	          0.07730012	
          1.02000000	        -27.02792847	         -4.06650485	        -19.65324515	         -4.37356895	         13.90862899	          4.96047426	        -35.42729779	         17.50219632	         28.17227726	          0.05876630	          0.08034644	          0.04747605	          0.07510964	          0.07543607	          0.13473931	          0.06908540	          0.07089790	          0.05632858	          0.07071337	          0.07252265	          0.05950444	          0.03402237	          0.13586318	          0.06084312	          0.06083775	          0.06334715	          0.07098482	          0.07127604	          0.07737870	          0.03670806	          0.12647051	          0.19569977	          0.05336482	          0.04489029	          0.31604525	          0.10695608	          0.10531629	          0.06856455	          0.07342303	          0.05175295	          0.07789831	          0.07747079	
          1.03000000	        -27.02993943	         -4.06594207	        -19.65554118	         -4.37382815	         13.91076439	          4.95955125	        -35.48946108	         17.49741677	         28.41791774	          0.05855289	          0.08127518	          0.04755461	          0.07528265	          0.07621963	          0.13455482	          0.06838532	          0.07080292	          0.05552310	          0.07156922	          0.07301363	          0.05968107	          0.03456329	          0.13763580	          0.06065807	          0.06139281	          0.06355718	          0.07115752	          0.07162330	          0.07790068	          0.03514273	          0.12511231	          0.19707709	          0.05360276	          0.04640654	          0.31429194	          0.10686647	          0.10471328	          0.06838411	          0.07243295	          0.05294612	          0.07606378	          0.07785364	
